# xmcd CD database file
#
# Track frame offsets:
#	150
#	16707
#	32486
#	51291
#	70408
#	80533
#	101947
#	110553
#	128687
#	140713
#	161997
#	173487
#	190980
#
# Disc length: 3011 seconds
#
# Revision: 0
# Processed by: cddbd v1.5.2PL0 Copyright (c) Steve Scherf et al.
# Submitted via: ACXtractor (MTCDDB.DLL V2003.12.21)
#
DISCID=b30bc10d
DTITLE=Reg Poole - The Cream of Australian Country Music
DYEAR=2002
DGENRE=Country
TTITLE0=Rebecca
TTITLE1=Country Hall of Fame
TTITLE2=Clancy of the Overflow
TTITLE3=I Was only 19
TTITLE4=Back ti those Rolling Plains
TTITLE5=The Band Played waltzing Matilda
TTITLE6=Take you up the Country
TTITLE7=Toy Telephone
TTITLE8=Song and Dance Man
TTITLE9=Ballad of the Drover
TTITLE10=Shearer's Jamboree
TTITLE11=True Blue
TTITLE12=The Man from Snowy River
EXTD=ID3G:   2 YEAR: 2002
EXTT0=
EXTT1=
EXTT2=
EXTT3=
EXTT4=
EXTT5=
EXTT6=
EXTT7=
EXTT8=
EXTT9=
EXTT10=
EXTT11=
EXTT12=
PLAYORDER=
